<svg width="14" height="16" viewBox="0 0 14 16" fill="none" xmlns="http://www.w3.org/2000/svg">
<path d="M3 0C2.45 0 2 0.45 2 1V2H1C0.45 2 0 2.45 0 3V13C0 13.55 0.45 14 1 14H2V15C2 15.55 2.45 16 3 16C3.55 16 4 15.55 4 15V14H5C5.55 14 6 13.55 6 13V3C6 2.45 5.55 2 5 2H4V1C4 0.45 3.55 0 3 0ZM13 4H12V1C12 0.45 11.55 0 11 0C10.45 0 10 0.45 10 1V4H9C8.45 4 8 4.45 8 5V10C8 10.55 8.45 11 9 11H10V15C10 15.55 10.45 16 11 16C11.55 16 12 15.55 12 15V11H13C13.55 11 14 10.55 14 10V5C14 4.45 13.55 4 13 4Z" fill="black"/>
</svg>
