<svg width="10" height="8" viewBox="0 0 10 8" fill="none" xmlns="http://www.w3.org/2000/svg">
<path fill-rule="evenodd" clip-rule="evenodd" d="M0.310287 0C0.138913 0 0 0.137746 0 0.307678C0 0.477609 0.138915 0.615356 0.310287 0.615356H1.49977L2.196 2.27218C2.20617 2.29638 2.21909 2.31865 2.23423 2.3387L3.27189 5.42535C3.35635 5.67664 3.59355 5.84612 3.86064 5.84612H8.55144C8.81853 5.84612 9.05573 5.67664 9.14018 5.42535L9.56762 4.15384L9.96768 2.96382C10.1016 2.56531 9.80254 2.15383 9.37888 2.15383H2.79279C2.79279 2.11434 2.78514 2.07416 2.76885 2.03546L1.99308 0.189337C1.94491 0.0747096 1.83193 2.46584e-05 1.70668 2.46584e-05L0.310287 0ZM7.75756 7.38464C7.75756 7.04478 8.03539 6.76923 8.37813 6.76923C8.72088 6.76923 8.99876 7.04478 8.99876 7.38464C8.99876 7.72451 8.72088 8 8.37813 8C8.03539 8 7.75756 7.72451 7.75756 7.38464ZM4.34412 6.76923C4.00137 6.76923 3.72355 7.04478 3.72355 7.38464C3.72355 7.72451 4.00137 8 4.34412 8C4.68693 8 4.96475 7.72451 4.96475 7.38464C4.96475 7.04478 4.68693 6.76923 4.34412 6.76923Z" fill="#F1F5F9"/>
</svg>
