<svg width="102" height="102" viewBox="0 0 102 102" fill="none" xmlns="http://www.w3.org/2000/svg">
<path d="M29.426 24.1254C32.1714 24.1254 34.3969 21.8937 34.3969 19.1408C34.3969 16.3879 32.1714 14.1562 29.426 14.1562C26.6806 14.1562 24.4551 16.3879 24.4551 19.1408C24.4551 21.8937 26.6806 24.1254 29.426 24.1254Z" fill="#54575C"/>
<path d="M20.7027 29.7295C22.369 29.7295 23.7198 28.375 23.7198 26.7041C23.7198 25.0332 22.369 23.6787 20.7027 23.6787C19.0364 23.6787 17.6855 25.0332 17.6855 26.7041C17.6855 28.375 19.0364 29.7295 20.7027 29.7295Z" fill="#54575C"/>
<path d="M50.9276 0.00195312C23.0296 0.00195312 0.333008 22.7608 0.333008 50.7353C0.333008 78.7098 23.0296 101.469 50.9276 101.469C78.8256 101.469 101.522 78.7098 101.522 50.7353C101.522 22.7608 78.8256 0.00195312 50.9276 0.00195312ZM50.9276 4.82895C66.1861 4.82895 79.7266 12.3557 88.0499 23.9006C83.1418 19.6303 77.1285 16.9673 70.7485 16.3055C61.8123 15.3811 52.4728 18.4065 43.741 25.0666C31.002 34.7626 22.0972 40.929 14.7482 38.3395C9.68298 36.559 10.6573 29.9671 10.9873 28.3231C18.8339 14.3201 33.7939 4.8342 50.9276 4.8342V4.82895ZM10.1125 29.9514C9.87155 32.7404 10.1806 37.4098 14.5387 38.9383C15.7487 39.3638 16.9953 39.5686 18.2891 39.5686C25.151 39.5686 33.27 33.8382 44.1286 25.5708C63.258 10.9796 80.4128 16.71 89.6946 26.3377C94.1365 33.4075 96.7084 41.7746 96.7084 50.73C96.7084 60.1844 93.8432 68.9823 88.9351 76.2937C90.3127 72.0392 91.2661 64.5387 83.9747 58.8398C73.2052 50.4254 60.4347 55.8249 46.91 61.5448C37.8377 65.3791 28.451 69.3552 19.3315 69.1661C8.63536 68.956 6.63442 62.2119 5.66013 57.637C5.31966 55.3837 5.14156 53.0779 5.14156 50.73C5.14156 43.2558 6.93299 36.1913 10.1073 29.9514H10.1125ZM10.4058 72.076C11.5687 73.4153 13.1349 74.8755 15.2039 76.1834C20.442 79.5029 30.0015 82.397 45.7995 77.3232C66.3119 70.7313 73.2209 74.6234 75.5152 77.5333C77.8304 80.4641 77.5632 85.0442 74.8447 89.866C67.878 94.1625 59.6909 96.6416 50.9276 96.6416C33.3643 96.6416 18.0796 86.6673 10.4058 72.076ZM75.9394 89.1622C78.2704 84.477 78.328 80.0649 76.0128 77.1288C71.8747 71.8816 61.0738 71.7346 45.6005 76.7086C30.0643 81.6984 20.6987 78.8936 15.5758 75.6581C11.9196 73.3471 9.84536 70.5002 8.85013 68.8142C8.06965 66.9916 7.39918 65.1112 6.85442 63.1783C8.65632 66.5714 12.103 69.6651 19.3158 69.8069C28.5715 69.9907 38.021 65.9989 47.1562 62.1383C60.5028 56.4972 73.1056 51.1712 83.5766 59.3493C87.8823 62.7109 89.7627 67.0809 89.1708 72.3333C88.867 75.0173 87.9661 77.2549 87.4108 78.4209C84.2313 82.6229 80.3447 86.2628 75.9342 89.1622H75.9394Z" fill="#54575C"/>
</svg>
