<svg width="69" height="66" viewBox="0 0 69 66" fill="none" xmlns="http://www.w3.org/2000/svg">
<path d="M65.3989 31.3845C65.3989 31.3845 57.8305 25.9628 56.3223 23.3342C54.8141 20.7057 53.917 11.4371 53.917 11.4371C50.5441 5.61583 45.2125 2.06275 39.4422 0.773926C25.6412 3.30848 15.1465 15.4289 15.1465 29.9507C15.1465 34.5654 16.2238 39.1174 18.2687 43.2111C17.2854 41.0096 16.7369 38.569 16.7369 35.9992C16.7369 26.2174 24.6579 18.2965 34.4397 18.2965C36.1281 18.2965 37.7577 18.5315 39.3012 18.9703C41.6046 19.3463 43.8532 19.9966 46.0234 20.9133C49.5648 22.4097 52.7457 24.5565 55.4761 27.2869C58.2065 30.0173 60.3533 33.1982 61.8497 36.7396C63.401 40.4063 64.1884 44.3002 64.1884 48.3155C64.1884 51.4808 63.6948 54.5794 62.7233 57.5527C68.7639 50.7286 70.5934 40.3828 65.3911 31.3767L65.3989 31.3845Z" fill="url(#paint0_linear_2240_2959)"/>
<path d="M24.1527 59.6167C33.6877 59.6167 42.5332 54.9511 48.0606 47.3239C44.8131 51.2256 39.9203 53.7053 34.4477 53.7053C27.792 53.7053 21.9982 50.0386 18.9739 44.613L18.9426 44.6326C16.412 40.1825 15.0722 35.1055 15.0722 29.9541C15.0722 25.9388 15.8596 22.0449 17.4109 18.3782C18.9073 14.8369 21.0541 11.656 23.7845 8.92552C26.5149 6.19509 29.6959 4.04836 33.2372 2.55191C35.1802 1.72926 37.1859 1.12206 39.2387 0.734238C30.2404 -1.18921 20.2393 2.37955 15.0095 11.4366C15.0095 11.4366 14.1124 20.7051 12.6042 23.3337C11.0961 25.9623 3.49629 31.384 3.49629 31.384C0.190008 37.1269 -0.26441 43.4182 1.4044 48.9927C7.06505 55.7463 15.3425 59.6167 24.1527 59.6167Z" fill="url(#paint1_linear_2240_2959)"/>
<path d="M39.9318 19.1655C47.0262 21.4729 52.1501 28.1364 52.1501 36.0025C52.1501 39.7162 51.0102 43.1596 49.0593 46.0036C46.5796 49.8819 43.2851 53.1881 39.3128 55.5464C34.7412 58.2612 29.4997 59.695 24.1525 59.695C15.3775 59.695 7.13137 55.8677 1.46289 49.1806C4.20899 58.0536 12.3493 65.0618 22.9342 65.0618C22.9342 65.0618 31.3997 61.3089 34.4474 61.3089C37.4951 61.3089 45.9606 65.0618 45.9606 65.0618C52.7848 65.0618 58.5982 62.1472 62.6057 57.6971C63.6085 54.6846 64.1178 51.5389 64.1178 48.3227C64.1178 33.8362 53.6818 21.7432 39.9318 19.1655Z" fill="url(#paint2_linear_2240_2959)"/>
<defs>
<linearGradient id="paint0_linear_2240_2959" x1="15.1504" y1="29.1672" x2="68.4506" y2="29.1672" gradientUnits="userSpaceOnUse">
<stop stop-color="#012E70"/>
<stop offset="0.1" stop-color="#084996"/>
<stop offset="0.2" stop-color="#0E60B6"/>
<stop offset="0.31" stop-color="#1373D0"/>
<stop offset="0.43" stop-color="#1782E5"/>
<stop offset="0.57" stop-color="#198DF3"/>
<stop offset="0.73" stop-color="#1B93FC"/>
<stop offset="1" stop-color="#1C95FF"/>
</linearGradient>
<linearGradient id="paint1_linear_2240_2959" x1="38.2867" y1="55.9774" x2="11.6641" y2="9.86178" gradientUnits="userSpaceOnUse">
<stop stop-color="#012E70"/>
<stop offset="0.1" stop-color="#084996"/>
<stop offset="0.2" stop-color="#0E60B6"/>
<stop offset="0.31" stop-color="#1373D0"/>
<stop offset="0.43" stop-color="#1782E5"/>
<stop offset="0.57" stop-color="#198DF3"/>
<stop offset="0.73" stop-color="#1B93FC"/>
<stop offset="1" stop-color="#1C95FF"/>
</linearGradient>
<linearGradient id="paint2_linear_2240_2959" x1="49.6861" y1="22.8675" x2="23.2045" y2="68.7285" gradientUnits="userSpaceOnUse">
<stop stop-color="#012E70"/>
<stop offset="0.1" stop-color="#084996"/>
<stop offset="0.2" stop-color="#0E60B6"/>
<stop offset="0.31" stop-color="#1373D0"/>
<stop offset="0.43" stop-color="#1782E5"/>
<stop offset="0.57" stop-color="#198DF3"/>
<stop offset="0.73" stop-color="#1B93FC"/>
<stop offset="1" stop-color="#1C95FF"/>
</linearGradient>
</defs>
</svg>
