<svg width="42" height="43" viewBox="0 0 42 43" fill="none" xmlns="http://www.w3.org/2000/svg">
<path d="M21.1733 0.876953C9.70463 0.876953 0.374268 10.2275 0.374268 21.7209C0.374268 33.2143 9.70463 42.5648 21.1733 42.5648C32.6419 42.5648 41.9722 33.2143 41.9722 21.7209C41.9722 10.2275 32.6419 0.876953 21.1733 0.876953ZM21.1733 2.86014C27.4459 2.86014 33.0122 5.95252 36.4339 10.6958C34.4162 8.94133 31.9442 7.84723 29.3214 7.57532C25.6479 7.19552 21.8085 8.43852 18.2189 11.1748C12.982 15.1585 9.32134 17.6919 6.30022 16.6281C4.21796 15.8965 4.61848 13.1882 4.75414 12.5128C7.97982 6.75961 14.1297 2.8623 21.1733 2.8623V2.86014ZM4.39453 13.1818C4.29548 14.3276 4.42252 16.2461 6.21409 16.8741C6.71151 17.0489 7.224 17.133 7.75587 17.133C10.5767 17.133 13.9144 14.7787 18.3782 11.382C26.2422 5.38713 33.2943 7.74149 37.11 11.6971C38.9361 14.6017 39.9933 18.0394 39.9933 21.7187C39.9933 25.6031 38.8155 29.2177 36.7978 32.2216C37.3641 30.4737 37.756 27.3921 34.7586 25.0506C30.3314 21.5936 25.0815 23.812 19.5217 26.162C15.7921 27.7373 11.9333 29.3709 8.18439 29.2932C3.78729 29.2069 2.96472 26.4361 2.5642 24.5565C2.42424 23.6307 2.35102 22.6833 2.35102 21.7187C2.35102 18.6479 3.08746 15.7454 4.39238 13.1818H4.39453ZM4.51512 30.4888C4.99315 31.039 5.637 31.639 6.48756 32.1763C8.64089 33.5401 12.5707 34.7292 19.0651 32.6446C27.4976 29.9363 30.3378 31.5354 31.281 32.7309C32.2327 33.9351 32.1229 35.8168 31.0053 37.7978C28.1414 39.5631 24.7758 40.5816 21.1733 40.5816C13.9531 40.5816 7.66974 36.4836 4.51512 30.4888ZM31.4554 37.5087C32.4136 35.5838 32.4373 33.771 31.4855 32.5647C29.7844 30.4089 25.3442 30.3485 18.9833 32.3921C12.5966 34.4422 8.7464 33.2898 6.64045 31.9605C5.13743 31.011 4.28471 29.8414 3.87558 29.1487C3.55473 28.3998 3.27911 27.6273 3.05516 26.8331C3.79591 28.2272 5.21279 29.4982 8.17793 29.5565C11.9829 29.632 15.8675 27.992 19.6229 26.4059C25.1095 24.0882 30.2904 21.9 34.5949 25.26C36.365 26.6411 37.138 28.4365 36.8947 30.5945C36.7698 31.6972 36.3994 32.6165 36.1712 33.0956C34.8641 34.822 33.2663 36.3175 31.4532 37.5087H31.4554Z" fill="#54575C"/>
</svg>
