<svg width="32" height="26" viewBox="0 0 32 26" fill="none" xmlns="http://www.w3.org/2000/svg">
<path fill-rule="evenodd" clip-rule="evenodd" d="M0.992919 0C0.444522 0 0 0.447676 0 0.999953C0 1.55223 0.444527 1.99991 0.992919 1.99991H4.79926L7.0272 7.38459C7.05975 7.46323 7.10108 7.5356 7.14953 7.60079L10.4701 17.6324C10.7403 18.4491 11.4994 18.9999 12.354 18.9999H27.3646C28.2193 18.9999 28.9783 18.4491 29.2486 17.6324L30.6164 13.5L31.8966 9.63242C32.3252 8.33726 31.3681 6.99995 30.0124 6.99995H8.93694C8.93694 6.87159 8.91243 6.74103 8.86032 6.61525L6.37786 0.615345C6.22371 0.242806 5.86219 8.01398e-05 5.46139 8.01398e-05L0.992919 0ZM24.8242 24.0001C24.8242 22.8955 25.7132 22 26.81 22C27.9068 22 28.796 22.8955 28.796 24.0001C28.796 25.1047 27.9068 26 26.81 26C25.7132 26 24.8242 25.1047 24.8242 24.0001ZM13.9012 22C12.8044 22 11.9154 22.8955 11.9154 24.0001C11.9154 25.1047 12.8044 26 13.9012 26C14.9982 26 15.8872 25.1047 15.8872 24.0001C15.8872 22.8955 14.9982 22 13.9012 22Z" fill="#54575C"/>
</svg>
