<svg width="24" height="24" viewBox="0 0 24 24" fill="none" xmlns="http://www.w3.org/2000/svg">
<g id="ic:round-candlestick-chart">
<path id="Vector" d="M7 6.5H7.5V6V5C7.5 4.72614 7.72614 4.5 8 4.5C8.27386 4.5 8.5 4.72614 8.5 5V6V6.5H9H10C10.2739 6.5 10.5 6.72614 10.5 7V17C10.5 17.2739 10.2739 17.5 10 17.5H9H8.5V18V19C8.5 19.2739 8.27386 19.5 8 19.5C7.72614 19.5 7.5 19.2739 7.5 19V18V17.5H7H6C5.72614 17.5 5.5 17.2739 5.5 17V7C5.5 6.72614 5.72614 6.5 6 6.5H7ZM16.5 8V8.5H17H18C18.2739 8.5 18.5 8.72614 18.5 9V14C18.5 14.2739 18.2739 14.5 18 14.5H17H16.5V15V19C16.5 19.2739 16.2739 19.5 16 19.5C15.7261 19.5 15.5 19.2739 15.5 19V15V14.5H15H14C13.7261 14.5 13.5 14.2739 13.5 14V9C13.5 8.72614 13.7261 8.5 14 8.5H15H15.5V8V5C15.5 4.72614 15.7261 4.5 16 4.5C16.2739 4.5 16.5 4.72614 16.5 5V8Z" fill="#54575C" stroke="#54575C"/>
</g>
</svg>
