<svg width="17" height="17" viewBox="0 0 17 17" fill="none" xmlns="http://www.w3.org/2000/svg">
<g id="mdi:question-mark-circle-outline">
<path id="Vector" d="M7.79102 12.7503H9.20768V11.3337H7.79102V12.7503ZM8.49935 1.41699C7.56915 1.41699 6.64806 1.60021 5.78867 1.95618C4.92929 2.31215 4.14842 2.8339 3.49068 3.49165C2.16229 4.82004 1.41602 6.62171 1.41602 8.50033C1.41602 10.3789 2.16229 12.1806 3.49068 13.509C4.14842 14.1667 4.92929 14.6885 5.78867 15.0445C6.64806 15.4004 7.56915 15.5837 8.49935 15.5837C10.378 15.5837 12.1796 14.8374 13.508 13.509C14.8364 12.1806 15.5827 10.3789 15.5827 8.50033C15.5827 7.57013 15.3995 6.64904 15.0435 5.78965C14.6875 4.93026 14.1658 4.1494 13.508 3.49165C12.8503 2.8339 12.0694 2.31215 11.21 1.95618C10.3506 1.60021 9.42955 1.41699 8.49935 1.41699ZM8.49935 14.167C5.3756 14.167 2.83268 11.6241 2.83268 8.50033C2.83268 5.37658 5.3756 2.83366 8.49935 2.83366C11.6231 2.83366 14.166 5.37658 14.166 8.50033C14.166 11.6241 11.6231 14.167 8.49935 14.167ZM8.49935 4.25033C7.7479 4.25033 7.02723 4.54884 6.49588 5.08019C5.96453 5.61154 5.66602 6.33221 5.66602 7.08366H7.08268C7.08268 6.70794 7.23194 6.3476 7.49761 6.08192C7.76329 5.81625 8.12363 5.66699 8.49935 5.66699C8.87507 5.66699 9.23541 5.81625 9.50108 6.08192C9.76676 6.3476 9.91602 6.70794 9.91602 7.08366C9.91602 8.50033 7.79102 8.32324 7.79102 10.6253H9.20768C9.20768 9.03158 11.3327 8.85449 11.3327 7.08366C11.3327 6.33221 11.0342 5.61154 10.5028 5.08019C9.97147 4.54884 9.2508 4.25033 8.49935 4.25033Z" fill="#54575C"/>
</g>
</svg>
