<svg width="14" height="13" viewBox="0 0 14 13" fill="none" xmlns="http://www.w3.org/2000/svg">
<path d="M12.6494 5.68646H3.51448L7.50538 1.69556C7.82433 1.37661 7.82433 0.853213 7.50538 0.534268C7.42973 0.458454 7.33986 0.398306 7.24092 0.357268C7.14199 0.316229 7.03594 0.295105 6.92883 0.295105C6.82172 0.295105 6.71567 0.316229 6.61673 0.357268C6.5178 0.398306 6.42793 0.458454 6.35227 0.534268L0.962918 5.92362C0.887104 5.99928 0.826957 6.08915 0.785918 6.18808C0.744879 6.28702 0.723755 6.39307 0.723755 6.50018C0.723755 6.60729 0.744879 6.71334 0.785918 6.81227C0.826957 6.91121 0.887104 7.00108 0.962918 7.07673L6.35227 12.4661C6.42799 12.5418 6.51787 12.6019 6.6168 12.6428C6.71573 12.6838 6.82175 12.7049 6.92883 12.7049C7.03591 12.7049 7.14193 12.6838 7.24086 12.6428C7.33978 12.6019 7.42967 12.5418 7.50538 12.4661C7.5811 12.3904 7.64116 12.3005 7.68213 12.2016C7.72311 12.1026 7.7442 11.9966 7.7442 11.8895C7.7442 11.7825 7.72311 11.6764 7.68213 11.5775C7.64116 11.4786 7.5811 11.3887 7.50538 11.313L3.51448 7.32208H12.6494C13.0992 7.32208 13.4672 6.95406 13.4672 6.50427C13.4672 6.05447 13.0992 5.68646 12.6494 5.68646Z" fill="white"/>
</svg>
