<svg width="23" height="23" viewBox="0 0 23 23" fill="none" xmlns="http://www.w3.org/2000/svg">
<g clip-path="url(#clip0_1356_12734)">
<path d="M20.4199 9.13738H19.2741V6.18419C19.2741 6.02754 19.2119 5.87731 19.1011 5.76654C18.9903 5.65578 18.8401 5.59355 18.6835 5.59355H4.50812C4.35148 5.59355 4.20125 5.53132 4.09048 5.42055C3.97971 5.30979 3.91748 5.15956 3.91748 5.00291C3.91748 4.84626 3.97971 4.69603 4.09048 4.58526C4.20125 4.4745 4.35148 4.41227 4.50812 4.41227H18.4472C18.6039 4.41227 18.7541 4.35004 18.8649 4.23927C18.9756 4.12851 19.0379 3.97828 19.0379 3.82163C19.0379 3.66498 18.9756 3.51475 18.8649 3.40398C18.7541 3.29322 18.6039 3.23099 18.4472 3.23099H4.50812C4.28007 3.22629 4.05333 3.26656 3.84085 3.34951C3.62837 3.43246 3.43431 3.55646 3.26976 3.71443C3.10522 3.87239 2.9734 4.06123 2.88185 4.27015C2.7903 4.47907 2.74081 4.70398 2.73621 4.93203V17.3355C2.73698 17.6563 2.80104 17.9738 2.92471 18.2699C3.04838 18.5659 3.22925 18.8347 3.45693 19.0607C3.68462 19.2867 3.95467 19.4656 4.2516 19.5872C4.54853 19.7087 4.86652 19.7704 5.18736 19.7689H18.6835C18.8401 19.7689 18.9903 19.7067 19.1011 19.5959C19.2119 19.4851 19.2741 19.3349 19.2741 19.1783V16.2251H20.4199C20.4945 16.2307 20.5694 16.2211 20.6401 16.1967C20.7108 16.1724 20.7758 16.1339 20.8311 16.0836C20.8864 16.0333 20.9308 15.9722 20.9617 15.9041C20.9926 15.836 21.0092 15.7623 21.0106 15.6876V9.78118C21.0125 9.61886 20.9525 9.46191 20.8428 9.34229C20.733 9.22267 20.5818 9.1494 20.4199 9.13738ZM19.8647 15.0438H14.7971C14.1918 15.0222 13.6198 14.7613 13.2067 14.3183C12.7936 13.8754 12.5732 13.2865 12.594 12.6812C12.5732 12.0759 12.7936 11.4871 13.2067 11.0441C13.6198 10.6011 14.1918 10.3402 14.7971 10.3187H19.8647V15.0438Z" fill="white"/>
<path d="M15.1633 13.5201C15.6526 13.5201 16.0493 13.1234 16.0493 12.6341C16.0493 12.1448 15.6526 11.7481 15.1633 11.7481C14.674 11.7481 14.2773 12.1448 14.2773 12.6341C14.2773 13.1234 14.674 13.5201 15.1633 13.5201Z" fill="white"/>
</g>
<defs>
<clipPath id="clip0_1356_12734">
<rect width="21.263" height="21.263" fill="white" transform="translate(0.963928 0.8685)"/>
</clipPath>
</defs>
</svg>
