<svg width="20" height="20" viewBox="0 0 20 20" fill="none" xmlns="http://www.w3.org/2000/svg">
<g clip-path="url(#clip0_1356_12707)">
<path fill-rule="evenodd" clip-rule="evenodd" d="M10.3345 19.5C5.0875 19.5 0.834473 15.247 0.834473 10C0.834473 4.75303 5.0875 0.5 10.3345 0.5C15.5814 0.5 19.8345 4.75303 19.8345 10C19.8345 15.247 15.5814 19.5 10.3345 19.5ZM11.4757 8.68959V7.28478H14.6902V5.14253H5.93775V7.28478H9.15232V8.689C6.53982 8.80894 4.5751 9.32669 4.5751 9.94656C4.5751 10.5664 6.53982 11.0836 9.15232 11.2041V15.7059H11.4757V11.2029C14.084 11.083 16.044 10.5658 16.044 9.94656C16.044 9.32728 14.084 8.81013 11.4757 8.68959ZM11.4757 10.8212V10.82C11.4103 10.8247 11.0737 10.8449 10.3226 10.8449C9.72291 10.8449 9.30075 10.8271 9.15232 10.82V10.8218C6.84382 10.7202 5.12075 10.3182 5.12075 9.83731C5.12075 9.35697 6.84382 8.955 9.15232 8.85169V10.4216C9.30313 10.4322 9.73538 10.4578 10.3327 10.4578C11.0493 10.4578 11.4086 10.4281 11.4757 10.4222V8.85287C13.7794 8.95559 15.4983 9.35756 15.4983 9.83731C15.4983 10.3182 13.7794 10.719 11.4757 10.8212Z" fill="white"/>
</g>
<defs>
<clipPath id="clip0_1356_12707">
<rect width="19" height="19" fill="white" transform="translate(0.834473 0.5)"/>
</clipPath>
</defs>
</svg>
