<svg width="20" height="20" viewBox="0 0 20 20" fill="none" xmlns="http://www.w3.org/2000/svg">
<g clip-path="url(#clip0_1356_12687)">
<path d="M10.3345 0.5C15.5815 0.5 19.8345 4.75303 19.8345 10C19.8345 15.247 15.5815 19.5 10.3345 19.5C5.08756 19.5 0.834534 15.247 0.834534 10C0.834534 4.75303 5.08756 0.5 10.3345 0.5ZM12.3248 3.80125C12.1799 3.73 12.035 3.80125 11.9994 3.94553C11.9632 3.98175 11.9632 4.01797 11.9632 4.08981V4.5945L11.9691 4.65625C12.0001 4.7784 12.0752 4.88478 12.1799 4.95491C15.0026 5.96428 16.4502 9.09928 15.4004 11.8739C14.8577 13.3879 13.6637 14.5404 12.1799 15.0813C12.035 15.1532 11.9632 15.2612 11.9632 15.4417V15.9464L11.9662 15.9987C11.9718 16.0557 11.9956 16.1094 12.0341 16.1518C12.0726 16.1942 12.1237 16.2232 12.1799 16.2344C12.2161 16.2344 12.2886 16.2344 12.3248 16.1988C13.1392 15.9444 13.8952 15.5315 14.5493 14.9838C15.2035 14.4361 15.7428 13.7644 16.1363 13.0074C16.5298 12.2504 16.7696 11.4231 16.842 10.573C16.9144 9.72293 16.818 8.86693 16.5582 8.05428C15.9075 5.99991 14.315 4.45022 12.3248 3.80184V3.80125ZM8.48916 3.76562C8.45294 3.76562 8.3805 3.76562 8.34428 3.80125C7.52991 4.05557 6.77389 4.46846 6.11975 5.01617C5.46561 5.56387 4.92627 6.23555 4.53279 6.99255C4.13931 7.74955 3.89945 8.57691 3.82704 9.42699C3.75462 10.2771 3.85108 11.1331 4.11085 11.9457C4.7616 13.9645 6.31781 15.5142 8.34428 16.1625C8.48916 16.2344 8.63403 16.1625 8.66966 16.0182C8.70588 15.9826 8.70588 15.9458 8.70588 15.874V15.3693L8.69994 15.3218C8.675 15.2214 8.58178 15.1068 8.48916 15.0451C5.66647 14.0357 4.21891 10.9007 5.26866 8.12612C5.81135 6.61206 7.00538 5.45959 8.48916 4.91869C8.63403 4.84684 8.70588 4.73878 8.70588 4.55828V4.05359L8.70291 4.00134C8.69726 3.94433 8.67344 3.89064 8.63495 3.8482C8.59646 3.80575 8.54535 3.7768 8.48916 3.76562ZM10.5881 5.6395H10.0448L9.99253 5.64425C9.87378 5.668 9.7871 5.77012 9.75503 5.92806V6.75694L9.63213 6.77594C8.618 6.95644 7.98269 7.65647 7.98269 8.52275C7.98269 9.71144 8.70588 10.1799 10.2259 10.3604C11.2394 10.5403 11.5648 10.757 11.5648 11.3336C11.5648 11.9095 11.0583 12.3061 10.3708 12.3061C9.42966 12.3061 9.10428 11.9101 8.99563 11.3692C8.96 11.2255 8.85075 11.1531 8.7421 11.1531H8.12697L8.08006 11.1572C8.02152 11.1667 7.96838 11.197 7.9305 11.2427C7.89262 11.2883 7.87256 11.3461 7.87403 11.4054V11.441L7.89363 11.5479C8.06581 12.3934 8.64532 12.9984 9.79185 13.1712V14.0363L9.7966 14.0886C9.82035 14.2061 9.92307 14.2928 10.0816 14.3243H10.6243L10.6765 14.3195C10.7953 14.2958 10.882 14.1937 10.914 14.0363V13.1706L11.0369 13.1469C12.054 12.9319 12.7232 12.1963 12.7232 11.2605C12.7232 9.99941 11.9632 9.56716 10.4432 9.38666C9.35722 9.24238 9.1405 8.95441 9.1405 8.44972C9.1405 7.94503 9.50269 7.62084 10.2259 7.62084C10.8772 7.62084 11.2394 7.83697 11.4199 8.37787C11.4387 8.43018 11.4731 8.47546 11.5184 8.50763C11.5638 8.53979 11.6179 8.5573 11.6734 8.55778H12.2523L12.2993 8.55422C12.358 8.54488 12.4114 8.51449 12.4494 8.46872C12.4874 8.42295 12.5075 8.36491 12.5059 8.30544V8.26981L12.4839 8.16709C12.3948 7.79803 12.1915 7.46647 11.903 7.21959C11.6146 6.9727 11.2556 6.82307 10.8772 6.79197V5.92806L10.8725 5.87581C10.8487 5.75766 10.746 5.67097 10.5875 5.6395H10.5881Z" fill="white"/>
</g>
<defs>
<clipPath id="clip0_1356_12687">
<rect width="19" height="19" fill="white" transform="translate(0.834534 0.5)"/>
</clipPath>
</defs>
</svg>
