<svg width="16" height="17" viewBox="0 0 16 17" fill="none" xmlns="http://www.w3.org/2000/svg">
<path d="M7.60418 6.36707C7.07883 6.36707 6.58687 6.57088 6.21439 6.94337C5.84366 7.31586 5.63809 7.80782 5.63809 8.33317C5.63809 8.85851 5.84366 9.35047 6.21439 9.72296C6.58687 10.0937 7.07883 10.2993 7.60418 10.2993C8.12953 10.2993 8.62149 10.0937 8.99397 9.72296C9.3647 9.35047 9.57027 8.85851 9.57027 8.33317C9.57027 7.80782 9.3647 7.31586 8.99397 6.94337C8.81204 6.76004 8.59549 6.61468 8.35691 6.51575C8.11833 6.41682 7.86246 6.36628 7.60418 6.36707ZM14.8483 10.5048L13.6992 9.52266C13.7537 9.18883 13.7818 8.84797 13.7818 8.50887C13.7818 8.16976 13.7537 7.82715 13.6992 7.49507L14.8483 6.5129C14.9351 6.43859 14.9973 6.33962 15.0265 6.22914C15.0556 6.11867 15.0505 6.00192 15.0117 5.89444L14.9959 5.84875C14.6797 4.96443 14.2058 4.14473 13.5973 3.42935L13.5657 3.39245C13.4918 3.30557 13.3933 3.24312 13.2833 3.21332C13.1732 3.18353 13.0566 3.18778 12.949 3.22554L11.5223 3.73331C10.9952 3.30109 10.4084 2.96023 9.77233 2.72303L9.49648 1.23133C9.47567 1.11896 9.42116 1.01557 9.34019 0.93492C9.25922 0.854265 9.15563 0.800155 9.04317 0.779779L8.99573 0.770994C8.08209 0.605836 7.11925 0.605836 6.2056 0.770994L6.15816 0.779779C6.04571 0.800155 5.94211 0.854265 5.86114 0.93492C5.78018 1.01557 5.72566 1.11896 5.70485 1.23133L5.42725 2.73006C4.79723 2.96915 4.21033 3.30918 3.68956 3.73683L2.25233 3.22554C2.14474 3.18748 2.02812 3.18307 1.91796 3.21289C1.8078 3.2427 1.70933 3.30533 1.63562 3.39245L1.60399 3.42935C0.99658 4.14549 0.522853 4.96499 0.205412 5.84875L0.189599 5.89444C0.110534 6.11406 0.175543 6.36004 0.353001 6.5129L1.51614 7.50561C1.46167 7.83593 1.43532 8.17328 1.43532 8.50711C1.43532 8.84446 1.46167 9.1818 1.51614 9.50861L0.356515 10.5013C0.269711 10.5756 0.207585 10.6746 0.178396 10.7851C0.149208 10.8956 0.154341 11.0123 0.193113 11.1198L0.208926 11.1655C0.526945 12.0492 0.996066 12.8663 1.60751 13.5849L1.63913 13.6218C1.71302 13.7086 1.8115 13.7711 1.92159 13.8009C2.03168 13.8307 2.14822 13.8264 2.25584 13.7887L3.69308 13.2774C4.21667 13.7079 4.79999 14.0487 5.43076 14.2842L5.70837 15.7829C5.72918 15.8953 5.78369 15.9986 5.86466 16.0793C5.94563 16.16 6.04922 16.2141 6.16167 16.2344L6.20911 16.2432C7.13175 16.4093 8.07661 16.4093 8.99925 16.2432L9.04668 16.2344C9.15914 16.2141 9.26273 16.16 9.3437 16.0793C9.42467 15.9986 9.47918 15.8953 9.49999 15.7829L9.77584 14.2912C10.4119 14.0522 10.9987 13.7131 11.5258 13.2809L12.9525 13.7887C13.0601 13.8267 13.1767 13.8311 13.2869 13.8013C13.397 13.7715 13.4955 13.7089 13.5692 13.6218L13.6009 13.5849C14.2123 12.8627 14.6814 12.0492 14.9994 11.1655L15.0152 11.1198C15.0908 10.9019 15.0258 10.6577 14.8483 10.5048ZM7.60418 11.422C5.89812 11.422 4.51536 10.0392 4.51536 8.33317C4.51536 6.62711 5.89812 5.24434 7.60418 5.24434C9.31024 5.24434 10.693 6.62711 10.693 8.33317C10.693 10.0392 9.31024 11.422 7.60418 11.422Z" fill="white"/>
</svg>
