<svg width="30" height="30" viewBox="0 0 30 30" fill="none" xmlns="http://www.w3.org/2000/svg">
<g clip-path="url(#clip0_5876_361)">
<path d="M26.6919 11.9043H25.1244V7.61867C25.1244 7.39134 25.0392 7.17333 24.8877 7.01259C24.7362 6.85185 24.5307 6.76154 24.3164 6.76154H4.92404C4.70974 6.76154 4.50422 6.67124 4.35269 6.5105C4.20116 6.34976 4.11603 6.13174 4.11603 5.90442C4.11603 5.6771 4.20116 5.45909 4.35269 5.29834C4.50422 5.1376 4.70974 5.0473 4.92404 5.0473H23.9932C24.2075 5.0473 24.413 4.957 24.5645 4.79625C24.716 4.63551 24.8012 4.4175 24.8012 4.19018C24.8012 3.96285 24.716 3.74484 24.5645 3.5841C24.413 3.42336 24.2075 3.33305 23.9932 3.33305H4.92404C4.61206 3.32623 4.30187 3.38468 4.01119 3.50505C3.72051 3.62543 3.45503 3.80537 3.22992 4.03461C3.00482 4.26384 2.82449 4.53788 2.69925 4.84106C2.57401 5.14424 2.5063 5.47062 2.5 5.80157V23.8011C2.50106 24.2667 2.58869 24.7275 2.75788 25.1571C2.92707 25.5868 3.17449 25.9767 3.48598 26.3048C3.79746 26.6328 4.16689 26.8924 4.57311 27.0688C4.97932 27.2451 5.41434 27.3347 5.85326 27.3325H24.3164C24.5307 27.3325 24.7362 27.2422 24.8877 27.0814C25.0392 26.9207 25.1244 26.7027 25.1244 26.4754V22.1897H26.6919C26.7939 22.1979 26.8964 22.1839 26.9931 22.1486C27.0898 22.1133 27.1787 22.0575 27.2544 21.9844C27.33 21.9114 27.3908 21.8228 27.433 21.724C27.4753 21.6252 27.498 21.5182 27.4999 21.4098V12.8385C27.5026 12.603 27.4205 12.3752 27.2704 12.2016C27.1203 12.0281 26.9134 11.9217 26.6919 11.9043ZM25.9324 20.4755H18.9996C18.1716 20.4442 17.3891 20.0656 16.824 19.4228C16.2589 18.7799 15.9574 17.9255 15.9857 17.047C15.9574 16.1686 16.2589 15.3141 16.824 14.6713C17.3891 14.0284 18.1716 13.6498 18.9996 13.6185H25.9324V20.4755Z" fill="#F1F5F9"/>
<path d="M20.2832 18.3501C21.1116 18.3501 21.7832 17.6785 21.7832 16.8501C21.7832 16.0217 21.1116 15.3501 20.2832 15.3501C19.4548 15.3501 18.7832 16.0217 18.7832 16.8501C18.7832 17.6785 19.4548 18.3501 20.2832 18.3501Z" fill="#54575C"/>
</g>
<defs>
<clipPath id="clip0_5876_361">
<rect width="30" height="30" fill="white"/>
</clipPath>
</defs>
</svg>
