<svg width="87" height="87" viewBox="0 0 87 87" fill="none" xmlns="http://www.w3.org/2000/svg">
<path d="M85.0635 79.0269L75.6626 72.7591C82.3703 65.3773 86.338 55.9136 86.9008 45.9545C87.4637 35.9947 84.5872 26.1434 78.7532 18.0534C72.92 9.96278 64.484 4.12333 54.8584 1.51448C45.2331 -1.09492 35.0035 -0.315472 25.8851 3.72181C16.7668 7.75974 9.31182 14.8093 4.76999 23.6914C0.229472 32.5724 -1.12215 42.7453 0.941638 52.5045C3.00617 62.264 8.36103 71.0176 16.1095 77.2987C23.8573 83.5782 33.5277 87.0035 43.4999 87H82.6503C83.9037 87 85.0958 86.4595 85.9217 85.5168C86.7475 84.5741 87.1269 83.3205 86.9623 82.0777C86.7977 80.8349 86.1059 79.724 85.063 79.0282L85.0635 79.0269ZM66.3477 77.0038L68.2849 78.2962H43.5008C35.3109 78.3071 27.3788 75.4326 21.0956 70.1772C14.8138 64.9218 10.5825 57.6203 9.14441 49.5549C7.70686 41.4898 9.1546 33.1756 13.2343 26.0718C17.3132 18.9675 23.7634 13.5279 31.4529 10.7072C39.1417 7.88576 47.5777 7.86394 55.2806 10.6453C62.984 13.4259 69.4624 18.8319 73.5784 25.9143C77.6952 32.9968 79.1859 41.303 77.7907 49.3751C76.3946 57.4474 72.2015 64.7702 65.9465 70.059C64.9051 70.9433 64.3386 72.2655 64.4172 73.6299C64.4959 74.9943 65.2096 76.2431 66.3464 77.0021L66.3477 77.0038ZM13.0509 82.6474C13.0509 83.8014 12.5928 84.9087 11.7772 85.7246C10.9608 86.5412 9.85471 86.9994 8.70033 86.9987H4.35053C2.79646 86.9987 1.36036 86.1697 0.583317 84.8234C-0.193726 83.4772 -0.193726 81.8177 0.583317 80.4715C1.36036 79.1252 2.79644 78.2962 4.35053 78.2962H8.70033C9.8546 78.2955 10.9608 78.7537 11.7772 79.5703C12.5928 80.3862 13.0509 81.4934 13.0509 82.6474ZM59.6269 33.5067L49.6528 43.4848L59.6276 53.4629C60.4513 54.2766 60.9166 55.386 60.9203 56.545C60.9239 57.7033 60.4658 58.8158 59.6466 59.6352C58.8273 60.4548 57.7153 60.913 56.5574 60.9093C55.3988 60.9057 54.2897 60.4402 53.4763 59.6155L43.5015 49.6382L33.5267 59.6155C32.4248 60.6981 30.8315 61.1148 29.3408 60.7105C27.85 60.3061 26.6856 59.1413 26.2814 57.6501C25.8772 56.1589 26.2938 54.565 27.376 53.4628L37.35 43.4847L27.376 33.5066C26.2938 32.4044 25.8772 30.8105 26.2814 29.3193C26.6856 27.8281 27.8501 26.6633 29.3408 26.259C30.8315 25.8547 32.4249 26.2714 33.5267 27.3539L43.5015 37.3312L53.4763 27.3531C54.5774 26.2655 56.173 25.8452 57.6667 26.2495C59.161 26.6531 60.3276 27.8201 60.7312 29.315C61.1354 30.8092 60.7142 32.4051 59.6269 33.5067Z" fill="#9E9E9E"/>
</svg>
