<svg version="1.1" xmlns="http://www.w3.org/2000/svg" width="983" height="1024" viewBox="0 0 983 1024"><path d="M238.136 202.208 C 222.413 207.156,207.092 223.559,202.821 240.016 C 201.132 246.526,200.696 292.100,200.696 462.010 L 200.696 675.813 204.463 685.135 C 209.641 697.949,222.906 711.248,235.034 715.786 C 244.200 719.216,244.990 719.228,447.035 719.228 C 629.578 719.228,650.612 718.964,657.614 716.577 C 668.224 712.962,683.294 698.785,688.300 687.708 L 692.196 679.089 692.196 459.553 L 692.196 240.016 688.656 232.356 C 683.883 222.029,672.818 210.358,662.772 205.055 L 654.514 200.696 449.723 200.383 C 285.148 200.132,243.596 200.490,238.136 202.208 M644.696 251.075 C 645.187 253.102,645.385 300.267,645.137 355.885 L 644.684 457.009 612.737 431.523 C 595.166 417.505,577.840 404.440,574.236 402.490 C 568.828 399.563,564.961 398.942,552.118 398.939 C 538.113 398.935,535.734 399.393,528.363 403.519 C 523.857 406.041,506.532 420.192,489.862 434.967 L 459.553 461.829 448.084 450.799 C 441.777 444.732,425.735 429.246,412.436 416.387 C 383.742 388.640,377.165 384.811,358.081 384.736 C 336.446 384.651,335.673 385.187,276.696 441.116 C 261.727 455.311,249.010 466.925,248.434 466.925 C 246.583 466.925,247.223 254.035,249.084 250.557 C 250.747 247.451,254.683 247.388,447.291 247.388 L 643.803 247.388 644.696 251.075 M745.209 298.915 C 741.960 301.123,738.655 304.256,737.866 305.878 C 737.077 307.499,736.062 408.355,735.612 530.001 C 734.826 742.208,734.669 751.381,731.735 756.226 C 725.454 766.597,741.004 765.844,514.437 766.740 C 310.890 767.545,307.088 767.618,301.639 770.836 C 285.880 780.141,286.765 802.997,303.208 811.382 C 308.468 814.064,321.966 814.247,515.321 814.249 C 743.393 814.252,732.223 814.749,749.295 803.829 C 767.492 792.188,778.756 773.475,781.563 750.222 C 782.634 741.350,783.063 660.748,782.766 524.267 C 782.329 323.615,782.144 311.810,779.358 306.705 C 772.900 294.877,756.618 291.162,745.209 298.915 M421.201 490.271 C 514.071 579.858,509.902 576.032,515.979 577.248 C 531.455 580.343,544.811 568.544,544.214 552.304 C 543.926 544.470,541.440 541.305,516.733 517.318 C 504.657 505.593,494.777 495.429,494.777 494.730 C 494.777 493.192,550.045 443.980,551.742 444.007 C 552.400 444.018,573.765 460.618,599.220 480.898 L 645.503 517.770 645.503 593.866 C 645.503 667.424,645.398 670.020,642.334 671.659 C 640.201 672.801,575.967 673.355,445.827 673.355 L 252.489 673.355 249.939 669.714 C 247.733 666.564,247.388 657.155,247.388 600.061 L 247.388 534.049 252.713 528.469 C 266.221 514.313,355.975 430.882,357.696 430.882 C 358.762 430.882,387.339 457.607,421.201 490.271 " fill="black" stroke="none" fill-rule="evenodd"></path></svg>