<!-- Generated by IcoMoon.io -->
<svg version="1.1" xmlns="http://www.w3.org/2000/svg" width="983" height="1024" viewBox="0 0 983 1024">
<title></title>
<g id="icomoon-ignore">
</g>
<path fill="#9b9b9b" d="M526.215 218.623c-9.377-8.721-21.791-13.579-34.695-13.579s-25.318 4.859-34.695 13.579l-244.621 227.436c-7.489 6.973-13.454 15.377-17.527 24.696-4.073 9.318-6.169 19.357-6.157 29.501v276.714c0.013 19.758 8 38.698 22.205 52.665 14.205 13.963 33.463 21.81 53.544 21.81h75.75c20.090 0 39.357-7.851 53.564-21.826s22.187-32.932 22.187-52.694v-124.199c0-6.589 2.659-12.906 7.395-17.565s11.157-7.274 17.854-7.274h101.002c6.697 0 13.118 2.616 17.854 7.274s7.395 10.977 7.395 17.565v124.199c0 19.762 7.982 38.719 22.188 52.694 14.204 13.975 33.47 21.826 53.561 21.826h75.749c20.090 0 39.357-7.851 53.565-21.826s22.188-32.932 22.188-52.694v-276.714c-0.004-10.14-2.111-20.171-6.192-29.485s-10.054-17.706-17.543-24.668l-244.572-227.436z"></path>
</svg>
