<!-- Generated by IcoMoon.io -->
<svg version="1.1" xmlns="http://www.w3.org/2000/svg" width="983" height="1024" viewBox="0 0 983 1024">
<title></title>
<g id="icomoon-ignore">
</g>
<path d="M569.229 466.96h-38.855v-186.685h12.952c24.019 0.088 47.030 9.95 64.012 27.436 16.986 17.486 26.567 41.177 26.649 65.906 0 10.61 4.096 20.785 11.383 28.287s17.17 11.718 27.476 11.718c10.301 0 20.185-4.216 27.472-11.718s11.383-17.677 11.383-28.287c0-45.975-17.74-90.067-49.316-122.577s-74.404-50.773-119.058-50.773h-12.952v-40.004c0-10.609-4.092-20.785-11.379-28.287s-17.17-11.717-27.476-11.717c-10.306 0-20.189 4.214-27.476 11.717s-11.379 17.678-11.379 28.287v40.004h-25.907c-44.653 0-87.48 18.263-119.056 50.773s-49.315 76.602-49.315 122.577c0 45.977 17.739 90.066 49.315 122.576s74.403 50.774 119.056 50.774h25.907v186.683h-38.859c-24.017-0.086-47.028-9.949-64.012-27.435s-26.563-41.177-26.649-65.905c0-10.613-4.094-20.787-11.38-28.287-7.287-7.504-17.17-11.719-27.475-11.719s-20.188 4.215-27.475 11.719c-7.287 7.5-11.38 17.674-11.38 28.287 0 45.974 17.739 90.067 49.315 122.577 31.576 32.506 74.403 50.77 119.056 50.77h38.859v40.006c0 10.609 4.092 20.783 11.379 28.287 7.287 7.5 17.17 11.715 27.476 11.715s20.189-4.215 27.476-11.715c7.287-7.504 11.379-17.678 11.379-28.287v-40.006h38.855c44.655 0 87.482-18.264 119.058-50.77 31.576-32.51 49.316-76.603 49.316-122.577 0-45.978-17.74-90.071-49.316-122.577-31.576-32.51-74.404-50.774-119.058-50.774zM426.758 466.96c-24.043 0-47.104-9.834-64.106-27.341-17.002-17.502-26.554-41.246-26.554-66.002s9.552-48.498 26.554-66.003c17.002-17.505 40.063-27.339 64.106-27.339h25.907v186.685h-25.907zM569.229 733.651h-38.855v-186.683h38.855c24.048 0 47.108 9.834 64.111 27.341 17.002 17.502 26.554 41.247 26.554 66.003s-9.552 48.497-26.554 66.003c-17.002 17.502-40.063 27.337-64.111 27.337z"></path>
</svg>
