<svg width="24" height="25" viewBox="0 0 24 25" fill="none" xmlns="http://www.w3.org/2000/svg">
<path d="M11.5036 9.10449L13.0935 9.52344C13.1475 9.53606 13.1958 9.56617 13.231 9.60909C13.2661 9.652 13.2861 9.70531 13.2878 9.76074C13.2878 9.89551 13.1679 10.0068 13.0206 10.0068H11.9776C11.8652 10.0065 11.7539 9.98463 11.6498 9.94238C11.4963 9.87793 11.3193 9.89258 11.2015 10.001L10.6449 10.5137C10.6192 10.5362 10.5969 10.5625 10.579 10.5916C10.556 10.6293 10.5407 10.6712 10.534 10.7148C10.5273 10.7584 10.5292 10.803 10.5398 10.8458C10.5504 10.8887 10.5693 10.9291 10.5955 10.9646C10.6218 11.0001 10.6548 11.03 10.6927 11.0527C11.0009 11.2377 11.3461 11.3528 11.7037 11.3896V11.9082C11.7037 12.166 11.9331 12.377 12.2126 12.377H12.7215C13.0012 12.377 13.2306 12.166 13.2306 11.9082V11.3926C14.1954 11.2871 14.9252 10.4844 14.798 9.54687C14.7057 8.87305 14.14 8.33691 13.434 8.14941L11.844 7.73047C11.79 7.71784 11.7417 7.68773 11.7066 7.64482C11.6715 7.60191 11.6515 7.54859 11.6498 7.49316C11.6498 7.3584 11.7696 7.24707 11.917 7.24707H12.9599C13.0727 7.24725 13.1844 7.26913 13.2889 7.31152C13.4422 7.37598 13.6194 7.36133 13.7372 7.25293L14.2938 6.74023C14.3187 6.71818 14.3401 6.6925 14.3574 6.66406C14.3806 6.62638 14.3961 6.58448 14.4029 6.54078C14.4098 6.49707 14.408 6.45244 14.3975 6.40946C14.3871 6.36647 14.3682 6.32598 14.342 6.29033C14.3158 6.25468 14.2828 6.22458 14.2449 6.20176C13.9365 6.01676 13.5913 5.90174 13.2336 5.86484V5.3457C13.2336 5.08789 13.0045 4.87695 12.7247 4.87695H12.2158C11.936 4.87695 11.7069 5.08789 11.7069 5.3457V5.86133C10.7433 5.9668 10.0121 6.76953 10.1392 7.70703C10.2312 8.38086 10.7987 8.91699 11.5036 9.10449ZM20.123 14.4893C19.7773 14.1758 19.2383 14.1963 18.875 14.4893L16.1679 16.6543C15.8357 16.9209 15.4221 17.0656 14.9961 17.0645H11.5311C11.4068 17.0645 11.2876 17.0151 11.1997 16.9272C11.1118 16.8393 11.0624 16.72 11.0624 16.5957C11.0624 16.4714 11.1118 16.3522 11.1997 16.2642C11.2876 16.1763 11.4068 16.127 11.5311 16.127H13.8248C14.2906 16.127 14.7245 15.8076 14.7989 15.3477C14.8081 15.2948 14.8126 15.2413 14.8124 15.1877C14.8119 14.9394 14.7129 14.7014 14.5372 14.5259C14.3614 14.3505 14.1232 14.252 13.8749 14.252H9.18738C8.39683 14.2522 7.63038 14.5241 7.01648 15.0222L5.65417 16.127H4.03113C3.90681 16.127 3.78758 16.1763 3.69967 16.2642C3.61176 16.3522 3.56238 16.4714 3.56238 16.5957V19.4082C3.56238 19.5325 3.61176 19.6518 3.69967 19.7397C3.78758 19.8276 3.90681 19.877 4.03113 19.877H14.4834C14.9092 19.8773 15.3225 19.7326 15.6552 19.4668L20.0858 15.9219C20.1924 15.8366 20.2791 15.7291 20.3398 15.6069C20.4005 15.4847 20.4339 15.3507 20.4374 15.2143C20.441 15.0779 20.4147 14.9423 20.3605 14.8171C20.3062 14.6918 20.2253 14.58 20.1233 14.4893H20.123Z" fill="#9B9B9B"/>
</svg>
