<!-- Generated by IcoMoon.io -->
<svg version="1.1" xmlns="http://www.w3.org/2000/svg" width="989" height="1024" viewBox="0 0 989 1024">
<title></title>
<g id="icomoon-ignore">
</g>
<path fill="#9b9b9b" d="M843.349 323.307c0-10.095-5.424-19.423-14.237-24.473l-320.576-183.627c-8.788-5.050-19.682-5.050-28.47 0l-320.548 183.627c-8.813 5.050-14.237 14.373-14.237 24.473v367.252c0.461 9.927 5.502 19.414 14.237 24.475l320.548 183.623c4.391 2.525 9.307 3.777 14.233 3.777 4.923 0 9.846-1.252 14.237-3.777l320.576-183.623c8.668-5.145 13.775-14.445 14.237-24.475v-367.252zM494.299 172.302l292.102 167.306v271.901l-190.638-230.686c-11.215-12.992-32.857-13.003-44.047 0.011l-124.867 151.15-48.667-50.935c-11.137-11.306-30.794-11.306-41.984-0.085l-133.971 139.135v-280.485l292.073-167.314zM219.364 684.088l137.701-143.018 143.656 150.346c10.841 11.352 28.841 11.775 40.26 1.054 11.405-10.731 11.874-28.611 1.054-39.935l-75.702-79.232 107.396-130.008 197.864 239.432-277.297 158.838-274.939-157.484z"></path>
<path fill="#9b9b9b" d="M392.095 454.901c47.105 0 85.421-38.017 85.421-84.748s-38.317-84.751-85.421-84.751c-47.101 0-85.42 38.019-85.42 84.751s38.319 84.748 85.42 84.748zM392.095 341.898c15.715 0 28.474 12.671 28.474 28.248 0 15.573-12.759 28.245-28.474 28.245-15.711 0-28.474-12.671-28.474-28.245 0-15.577 12.763-28.248 28.474-28.248z"></path>
</svg>
