<svg width="34" height="34" viewBox="0 0 34 34" fill="none" xmlns="http://www.w3.org/2000/svg">
<path d="M17.4504 10.2945C18.8732 10.2945 20.0267 9.19866 20.0267 7.84693C20.0267 6.49521 18.8732 5.39941 17.4504 5.39941C16.0275 5.39941 14.874 6.49521 14.874 7.84693C14.874 9.19866 16.0275 10.2945 17.4504 10.2945Z" fill="#9B9B9B"/>
<path d="M26.468 11.1104H8.43368C7.71982 11.1104 7.14551 11.6559 7.14551 12.3341C7.14551 13.0123 7.71982 13.5579 8.43368 13.5579H13.7205C14.0211 13.6089 14.429 13.7516 14.6437 14.2819C14.896 14.8989 14.7725 15.9952 14.6169 16.9181L14.4129 18.0093C14.4129 18.0144 14.4129 18.0195 14.4076 18.0246L12.7759 26.8051C12.6524 27.4679 13.1194 28.1053 13.8225 28.2226C14.5256 28.3399 15.1805 27.8963 15.3039 27.2283L16.4311 21.1146V21.1248C16.4311 21.1248 16.7638 19.4676 17.424 19.4676H17.4831C18.154 19.4676 18.476 21.1248 18.476 21.1248V21.1197L19.6032 27.2334C19.7266 27.8963 20.3922 28.3399 21.0899 28.2226C21.793 28.1053 22.2546 27.4679 22.1312 26.8051L20.4995 18.0246C20.4995 18.0195 20.4995 18.0144 20.4941 18.0093L20.2902 16.9181C20.1345 15.9952 20.0111 14.8989 20.2633 14.2819C20.478 13.7516 20.886 13.6089 21.1865 13.5579H26.468C27.1819 13.5579 27.7562 13.0123 27.7562 12.3341C27.7562 11.6559 27.1819 11.1104 26.468 11.1104V11.1104Z" fill="#9B9B9B"/>
</svg>
