<svg version="1.1" xmlns="http://www.w3.org/2000/svg" width="1100" height="1024" viewBox="0 0 1100 1024"><path d="M523.682 94.571 C 500.905 100.085,476.311 117.385,464.315 136.333 C 446.130 165.058,446.538 205.948,465.284 233.194 C 483.984 260.374,515.181 276.779,548.167 276.779 C 601.348 276.779,645.333 234.893,645.333 184.250 C 645.333 133.158,600.925 91.321,547.250 91.847 C 540.192 91.916,529.586 93.141,523.682 94.571 M192.488 309.701 C 165.780 317.894,152.110 342.851,159.896 369.204 C 162.708 378.721,177.885 394.214,187.917 397.809 C 193.848 399.934,216.308 400.626,305.397 401.427 L 415.544 402.417 424.369 407.917 C 443.007 419.532,449.566 443.510,445.767 486.138 C 443.345 513.319,444.716 505.512,403.467 727.003 C 385.244 824.859,370.333 908.708,370.333 913.335 C 370.333 930.778,386.095 950.512,403.869 955.321 C 413.858 958.024,433.781 956.581,441.485 952.597 C 451.608 947.362,461.659 935.529,464.765 925.191 C 466.326 919.998,477.116 863.775,488.745 800.250 C 500.374 736.725,511.570 678.975,513.625 671.917 C 518.437 655.387,528.860 635.478,535.728 629.700 C 546.945 620.261,560.844 625.211,570.705 642.157 C 580.735 659.396,584.851 677.007,606.907 797.052 C 619.086 863.344,630.306 921.504,631.841 926.296 C 635.467 937.619,647.893 950.153,659.368 954.063 C 664.108 955.679,673.040 957.000,679.217 957.000 C 704.278 957.000,725.843 936.757,725.960 913.120 C 725.982 908.648,711.087 824.911,692.860 727.037 C 651.814 506.634,653.008 513.417,650.523 486.455 C 646.617 444.066,653.313 419.540,671.964 407.917 L 680.790 402.417 790.937 401.500 L 901.083 400.583 910.250 396.360 C 922.259 390.827,928.988 384.314,934.297 373.083 C 944.734 351.007,935.305 325.456,912.083 312.886 L 904.750 308.917 550.917 308.604 C 356.308 308.432,195.015 308.926,192.488 309.701 " stroke="none" fill-rule="evenodd" fill="black"></path></svg>