<svg width="24" height="25" viewBox="0 0 24 25" fill="none" xmlns="http://www.w3.org/2000/svg">
<path d="M12 4.1709C9.80042 4.1709 8.0109 6.01155 8.0109 8.27399V10.7358H7.21308C6.78989 10.7358 6.38403 10.9088 6.08479 11.2166C5.78554 11.5243 5.61743 11.9418 5.61743 12.3771V18.942C5.61743 19.3773 5.78554 19.7948 6.08479 20.1026C6.38403 20.4104 6.78989 20.5833 7.21308 20.5833H16.787C17.2102 20.5833 17.616 20.4104 17.9153 20.1026C18.2145 19.7948 18.3826 19.3773 18.3826 18.942V12.3771C18.3826 11.9418 18.2145 11.5243 17.9153 11.2166C17.616 10.9088 17.2102 10.7358 16.787 10.7358H15.9891V8.27399C15.9891 6.01155 14.1996 4.1709 12 4.1709ZM9.60655 8.27399C9.60655 6.91669 10.6804 5.81214 12 5.81214C13.3196 5.81214 14.3935 6.91669 14.3935 8.27399V10.7358H9.60655V8.27399ZM12.7978 17.0735V18.942H11.2022V17.0735C10.9233 16.9092 10.6993 16.6618 10.5598 16.3639C10.4203 16.0661 10.3719 15.7317 10.4209 15.405C10.4699 15.0782 10.614 14.7744 10.8342 14.5336C11.0545 14.2928 11.3405 14.1263 11.6546 14.0561C11.8879 14.003 12.1298 14.0045 12.3624 14.0604C12.5951 14.1163 12.8126 14.2252 12.9989 14.3791C13.1852 14.533 13.3355 14.728 13.4388 14.9496C13.5421 15.1712 13.5957 15.4138 13.5957 15.6596C13.5952 15.9466 13.5212 16.2284 13.3812 16.4766C13.2411 16.7248 13.0399 16.9307 12.7978 17.0735Z" fill="#9B9B9B"/>
</svg>
