<svg width="24" height="25" viewBox="0 0 24 25" fill="none" xmlns="http://www.w3.org/2000/svg">
<path d="M4.5 6.87695L8.5 2.87695L9.95 4.27695L8.35 5.87695L15.5 5.87695C16.6 5.87695 17.5417 6.26862 18.325 7.05195C19.1083 7.83529 19.5 8.77695 19.5 9.87695C19.5 10.977 19.1083 11.9186 18.325 12.702C17.5417 13.4853 16.6 13.877 15.5 13.877L8.5 13.877C7.95 13.877 7.479 14.073 7.087 14.465C6.69567 14.8563 6.5 15.327 6.5 15.877C6.5 16.427 6.69567 16.898 7.087 17.29C7.479 17.6813 7.95 17.877 8.5 17.877L15.65 17.877L14.05 16.277L15.5 14.877L19.5 18.877L15.5 22.877L14.05 21.477L15.65 19.877L8.5 19.877C7.4 19.877 6.45833 19.4853 5.675 18.702C4.89166 17.9186 4.5 16.977 4.5 15.877C4.5 14.777 4.89166 13.8353 5.675 13.052C6.45833 12.2686 7.4 11.877 8.5 11.877L15.5 11.877C16.05 11.877 16.5207 11.6813 16.912 11.29C17.304 10.898 17.5 10.427 17.5 9.87695C17.5 9.32695 17.304 8.85629 16.912 8.46495C16.5207 8.07295 16.05 7.87695 15.5 7.87695L8.35 7.87695L9.95 9.47695L8.5 10.877L4.5 6.87695Z" fill="#9B9B9B"/>
</svg>
