<svg width="30" height="30" viewBox="0 0 30 30" fill="none" xmlns="http://www.w3.org/2000/svg">
<g clip-path="url(#clip0_5841_69)">
<path d="M26.6919 11.9045H25.1244V7.6189C25.1244 7.39157 25.0392 7.17356 24.8877 7.01282C24.7362 6.85208 24.5307 6.76177 24.3164 6.76177H4.92404C4.70974 6.76177 4.50422 6.67147 4.35269 6.51073C4.20116 6.34999 4.11603 6.13197 4.11603 5.90465C4.11603 5.67733 4.20116 5.45932 4.35269 5.29857C4.50422 5.13783 4.70974 5.04753 4.92404 5.04753H23.9932C24.2075 5.04753 24.413 4.95722 24.5645 4.79648C24.716 4.63574 24.8012 4.41773 24.8012 4.19041C24.8012 3.96308 24.716 3.74507 24.5645 3.58433C24.413 3.42359 24.2075 3.33328 23.9932 3.33328H4.92404C4.61206 3.32646 4.30187 3.38491 4.01119 3.50528C3.72051 3.62565 3.45503 3.8056 3.22992 4.03484C3.00482 4.26407 2.82449 4.53811 2.69925 4.84129C2.57401 5.14447 2.5063 5.47085 2.5 5.8018V23.8014C2.50106 24.267 2.58869 24.7278 2.75788 25.1574C2.92707 25.587 3.17449 25.977 3.48598 26.305C3.79746 26.633 4.16689 26.8926 4.57311 27.069C4.97932 27.2453 5.41434 27.335 5.85326 27.3327H24.3164C24.5307 27.3327 24.7362 27.2424 24.8877 27.0817C25.0392 26.9209 25.1244 26.7029 25.1244 26.4756V22.19H26.6919C26.7939 22.1982 26.8964 22.1842 26.9931 22.1489C27.0898 22.1136 27.1787 22.0577 27.2544 21.9847C27.33 21.9117 27.3908 21.823 27.433 21.7242C27.4753 21.6254 27.498 21.5185 27.4999 21.41V12.8388C27.5026 12.6032 27.4205 12.3754 27.2704 12.2019C27.1203 12.0283 26.9134 11.9219 26.6919 11.9045ZM25.9324 20.4757H18.9996C18.1716 20.4444 17.3891 20.0658 16.824 19.423C16.2589 18.7801 15.9574 17.9257 15.9857 17.0472C15.9574 16.1688 16.2589 15.3143 16.824 14.6715C17.3891 14.0287 18.1716 13.65 18.9996 13.6188H25.9324V20.4757Z" fill="#54575C"/>
<path d="M20.2832 18.3502C21.1116 18.3502 21.7832 17.6786 21.7832 16.8502C21.7832 16.0217 21.1116 15.3502 20.2832 15.3502C19.4548 15.3502 18.7832 16.0217 18.7832 16.8502C18.7832 17.6786 19.4548 18.3502 20.2832 18.3502Z" fill="#54575C"/>
</g>
<defs>
<clipPath id="clip0_5841_69">
<rect width="30" height="30" fill="white"/>
</clipPath>
</defs>
</svg>
