<?xml version="1.0" encoding="utf-8"?>
<!-- Generator: Adobe Illustrator 27.0.1, SVG Export Plug-In . SVG Version: 6.00 Build 0)  -->
<svg version="1.1" id="Layer_1" xmlns="http://www.w3.org/2000/svg" xmlns:xlink="http://www.w3.org/1999/xlink" x="0px" y="0px"
	 viewBox="0 0 120 120" style="enable-background:new 0 0 120 120;" xml:space="preserve">
<style type="text/css">
	.st0{fill:url(#SVGID_1_);}
</style>
<linearGradient id="SVGID_1_" gradientUnits="userSpaceOnUse" x1="60" y1="114.7008" x2="60" y2="5.2992">
	<stop  offset="0" style="stop-color:#197FF3"/>
	<stop  offset="1" style="stop-color:#19D8F3"/>
</linearGradient>
<path class="st0" d="M112.2,57.9c0,0-12.8-9.1-15.3-13.6c-2.5-4.4-4.1-20.1-4.1-20.1C78.2-1,41.8-1,27.2,24.2c0,0-1.5,15.6-4.1,20.1
	S7.8,57.9,7.8,57.9c-14.6,25.3,3.6,56.8,32.8,56.8c0,0,14.3-6.3,19.4-6.3s19.4,6.3,19.4,6.3C108.6,114.7,126.8,83.1,112.2,57.9z
	 M60,95.5c-16.5,0-29.9-13.4-29.9-29.9S43.5,35.8,60,35.8s29.9,13.4,29.9,29.9S76.5,95.5,60,95.5z"/>
</svg>
