<?xml version="1.0" encoding="utf-8"?>
<!-- Generator: Adobe Illustrator 27.0.1, SVG Export Plug-In . SVG Version: 6.00 Build 0)  -->
<svg version="1.1" id="Layer_1" xmlns="http://www.w3.org/2000/svg" xmlns:xlink="http://www.w3.org/1999/xlink" x="0px" y="0px"
	 viewBox="0 0 219 227" style="enable-background:new 0 0 219 227;" xml:space="preserve">
<style type="text/css">
	.st0{fill:#312F30;}
</style>
<path class="st0" d="M208.5,109.7c0,0-25.1-19.2-30.2-27.7c-5-8.3-9.9-38.8-9.9-38.8c-26.3-43.6-91.9-43.6-118.2,0
	c0,0-5.4,31.4-10.4,39.7c-5.1,8.5-29.7,26.8-29.7,26.8c-26.3,43.6,6.6,98,59.1,98c0,0,29.9-11,40.1-11s40.1,11,40.1,11
	C202,207.7,234.8,153.3,208.5,109.7z M109.3,173.9c-30.5,0-55.2-24.7-55.2-55.2s24.7-55.2,55.2-55.2s55.2,24.7,55.2,55.2
	S139.8,173.9,109.3,173.9z"/>
</svg>
