<svg width="65" height="61" viewBox="0 0 65 61" fill="none" xmlns="http://www.w3.org/2000/svg">
<path d="M62.083 29.3173C62.083 29.3173 54.8447 24.2157 53.4068 21.7419C51.964 19.2681 51.1081 10.5473 51.1081 10.5473C42.8281 -3.51576 22.1597 -3.51576 13.9139 10.5473C13.9139 10.5473 13.0531 19.2681 11.6152 21.7419C10.1724 24.2157 2.90477 29.3173 2.90477 29.3173C-5.34594 43.4092 4.95889 61 21.4848 61C21.4848 61 29.579 57.4674 32.4939 57.4674C35.4088 57.4674 43.503 61 43.503 61C60.0289 61 70.3631 43.4092 62.083 29.3173ZM32.4939 50.3204C23.1427 50.3204 15.567 42.8653 15.567 33.6632C15.567 24.4611 23.1427 17.0061 32.4939 17.0061C41.845 17.0061 49.4208 24.4611 49.4208 33.6632C49.4208 42.8653 41.845 50.3204 32.4939 50.3204Z" fill="white"/>
</svg>
