<svg width="33" height="34" viewBox="0 0 33 34" fill="none" xmlns="http://www.w3.org/2000/svg">
<path d="M15.9779 1.39453C13.7429 1.39453 11.5994 2.26311 10.019 3.80917C8.43864 5.35523 7.55078 7.45214 7.55078 9.63861C7.55078 17.4541 15.9779 23.9605 15.9779 23.9605C15.9779 23.9605 24.4051 17.4385 24.4051 9.63861C24.4051 7.45214 23.5172 5.35523 21.9368 3.80917C20.3564 2.26311 18.2129 1.39453 15.9779 1.39453Z" fill="#9B9B9B"/>
<path d="M22.4061 18.6073L31.8368 23.6566C31.9311 23.707 32.0097 23.7814 32.0644 23.8719C32.1191 23.9625 32.1478 24.0657 32.1475 24.1708C32.1461 24.2756 32.1167 24.3783 32.0622 24.4685C32.0077 24.5587 31.93 24.6334 31.8368 24.6851L16.3605 32.9682C16.2739 33.0191 16.1748 33.046 16.0738 33.0461C15.9725 33.0481 15.8728 33.021 15.787 32.9682L0.310748 24.6851C0.216472 24.6347 0.137856 24.5603 0.0831851 24.4697C0.0285143 24.3792 -0.000187232 24.276 0.000106092 24.1708C-0.0019534 24.0654 0.0260075 23.9614 0.0808649 23.8706C0.135722 23.7798 0.215315 23.7057 0.310748 23.6566L9.59016 18.6852C9.63468 18.6589 9.68793 18.6508 9.73854 18.6624C9.78914 18.6741 9.83308 18.7046 9.86097 18.7475L10.307 19.3787C12.1166 21.8213 13.3866 23.3583 15.9782 25.2362C18.5521 23.3654 19.8748 21.7168 21.6972 19.3008L22.1353 18.6774C22.1632 18.6346 22.2066 18.6037 22.2567 18.5907C22.3069 18.5777 22.3602 18.5836 22.4061 18.6073Z" fill="#9B9B9B"/>
<path d="M17.2684 10.8541H16.6712V7.97426H16.8703C17.2394 7.97562 17.5931 8.12776 17.8541 8.3975C18.1151 8.66724 18.2623 9.0327 18.2636 9.41417C18.2636 9.57783 18.3266 9.73479 18.4385 9.85052C18.5505 9.96625 18.7024 10.0313 18.8608 10.0313C19.0192 10.0313 19.1711 9.96625 19.2831 9.85052C19.3951 9.73479 19.458 9.57783 19.458 9.41417C19.458 8.70495 19.1853 8.02478 18.7 7.52329C18.2148 7.0218 17.5566 6.74006 16.8703 6.74006H16.6712V6.12296C16.6712 5.95929 16.6083 5.80233 16.4963 5.6866C16.3843 5.57088 16.2324 5.50586 16.074 5.50586C15.9157 5.50586 15.7638 5.57088 15.6518 5.6866C15.5398 5.80233 15.4769 5.95929 15.4769 6.12296V6.74006H15.0788C14.3925 6.74006 13.7343 7.0218 13.249 7.52329C12.7637 8.02478 12.491 8.70495 12.491 9.41417C12.491 10.1234 12.7637 10.8036 13.249 11.305C13.7343 11.8065 14.3925 12.0883 15.0788 12.0883H15.4769V14.9681H14.8797C14.5106 14.9667 14.1569 14.8146 13.8959 14.5448C13.6349 14.2751 13.4876 13.9096 13.4863 13.5282C13.4863 13.3645 13.4234 13.2075 13.3114 13.0918C13.1994 12.9761 13.0475 12.9111 12.8892 12.9111C12.7308 12.9111 12.5789 12.9761 12.4669 13.0918C12.3549 13.2075 12.292 13.3645 12.292 13.5282C12.292 14.2374 12.5646 14.9176 13.0499 15.419C13.5352 15.9205 14.1934 16.2023 14.8797 16.2023H15.4769V16.8194C15.4769 16.983 15.5398 17.14 15.6518 17.2557C15.7638 17.3715 15.9157 17.4365 16.074 17.4365C16.2324 17.4365 16.3843 17.3715 16.4963 17.2557C16.6083 17.14 16.6712 16.983 16.6712 16.8194V16.2023H17.2684C17.9547 16.2023 18.6129 15.9205 19.0982 15.419C19.5834 14.9176 19.8561 14.2374 19.8561 13.5282C19.8561 12.819 19.5834 12.1388 19.0982 11.6373C18.6129 11.1358 17.9547 10.8541 17.2684 10.8541ZM15.0788 10.8541C14.7092 10.8541 14.3548 10.7024 14.0935 10.4323C13.8322 10.1623 13.6854 9.79605 13.6854 9.41417C13.6854 9.03228 13.8322 8.66603 14.0935 8.396C14.3548 8.12597 14.7092 7.97426 15.0788 7.97426H15.4769V10.8541H15.0788ZM17.2684 14.9681H16.6712V12.0883H17.2684C17.6379 12.0883 17.9923 12.24 18.2536 12.51C18.5149 12.78 18.6618 13.1463 18.6618 13.5282C18.6618 13.9101 18.5149 14.2763 18.2536 14.5463C17.9923 14.8164 17.6379 14.9681 17.2684 14.9681Z" fill="white"/>
</svg>
