<svg width="32" height="32" viewBox="0 0 32 32" fill="none" xmlns="http://www.w3.org/2000/svg">
<path d="M31.979 17.5637V27.5853C31.8538 27.9134 31.7704 28.2669 31.5869 28.5614C31.0363 29.4869 30.1853 29.874 29.1259 29.8656H2.56365C1.16213 29.8067 0.0275594 28.6792 0.019217 27.2739C0.0025322 24.127 0.0108747 20.9716 0.0108747 17.8246C0.0108747 17.5385 0.110983 17.3113 0.369598 17.1767C0.628212 17.042 0.870142 17.0841 1.09539 17.2524C1.6293 17.6479 2.22995 17.7825 2.889 17.7825C6.23431 17.7741 9.58795 17.7825 12.9333 17.7825H13.3254V19.6505C13.3337 20.2227 13.5756 20.4751 14.1429 20.4751H17.7385C18.4559 20.4751 18.6645 20.2647 18.6645 19.5411V17.7825H19.0649C22.4269 17.7825 25.7889 17.7741 29.1509 17.7825C29.7349 17.7825 30.2771 17.6647 30.7777 17.3281C31.2782 16.9915 31.6286 17.0084 31.979 17.5637Z" fill="#E4E7EB"/>
<path d="M31.979 9.31712V14.1049C31.9601 14.1392 31.946 14.1761 31.9372 14.2143C31.5285 15.7205 30.6191 16.4357 29.0675 16.4357H18.6645C18.6645 16.2085 18.6728 16.015 18.6645 15.8299C18.6478 15.3502 18.3975 15.0978 17.9137 15.0978C16.6373 15.0894 15.3609 15.0894 14.0762 15.0978C13.584 15.0978 13.342 15.3503 13.3253 15.8551V16.4357H2.70546C1.17045 16.4357 0.0192021 15.2577 0.0108597 13.6926C0.00251725 12.4473 0.0442294 11.1935 0.00251738 9.9482C-0.0642219 8.29056 1.20382 6.98633 2.88065 7.0284C4.89951 7.07888 6.91837 7.03681 8.93723 7.03681H9.32933V5.82514C9.33767 4.14226 10.4639 3.00631 12.1324 3.00631C14.7102 2.9979 17.2963 2.9979 19.8741 3.00631C20.0808 2.9991 20.2876 3.01319 20.4915 3.04838C21.7845 3.30923 22.6355 4.37786 22.6605 5.74941C22.6688 6.17013 22.6605 6.58243 22.6605 7.0284H23.0693C25.1882 7.03681 27.3155 7.01998 29.4345 7.04523C30.5691 7.05364 31.5285 7.83618 31.8622 8.93005C31.9039 9.05627 31.9372 9.1909 31.979 9.31712ZM12.0072 7.00316H19.9742V5.70733H12.0072V7.00316Z" fill="#E4E7EB"/>
</svg>
