<svg width="32" height="32" viewBox="0 0 32 32" fill="none" xmlns="http://www.w3.org/2000/svg">
<path d="M16.2158 26.6908C11.9637 26.6273 8.42931 25.2569 5.42193 22.5341L1.19706 18.686C-0.392948 17.2338 -0.402035 15.1101 1.18797 13.658C2.9506 12.0606 4.6769 10.4179 6.5213 8.92038C8.74731 7.08707 11.364 6.07058 14.2442 5.77108C18.9688 5.27191 23.0937 6.66051 26.619 9.84612L30.7893 13.6398C32.3975 15.101 32.4066 17.2338 30.7984 18.695C29.0449 20.2924 27.3186 21.9351 25.4742 23.4326C23.2391 25.2569 20.6224 26.2552 17.7422 26.5729C17.1698 26.6364 16.5974 26.6636 16.2158 26.6908ZM22.176 16.2083C22.1851 15.4731 21.9943 14.6563 21.749 13.9484C21.4219 13.0136 20.5315 12.8684 19.8773 13.3312C19.2232 13.7941 18.5236 13.7578 17.8694 13.304C17.2152 12.8502 16.9881 12.2331 17.1334 11.4707C17.2788 10.7083 16.7609 9.99133 15.8887 10.0095C12.1999 10.0639 9.34697 13.4129 9.89211 17.0523C10.3827 20.2833 13.1902 22.4978 16.2703 22.3163C19.6411 22.1257 22.1306 19.5028 22.176 16.2083Z" fill="#E4E7EB"/>
<path d="M14.9263 12.3877C15.3169 14.6748 17.4793 16.254 19.9143 15.7004C20.4595 17.2523 18.9603 19.5031 17.0432 20.0205C14.7991 20.6285 12.5458 19.2036 12.0915 16.8893C11.6917 14.9198 13.1636 12.5964 14.9263 12.3877Z" fill="#E4E7EB"/>
</svg>
